<svg xmlns="http://www.w3.org/2000/svg" id="Ebene_2" viewBox="0 0 3740.79 300.47"><defs><style>.cls-1{fill:#010101;}.cls-2{fill:#0087cd;}.cls-3{fill:#fff;}.cls-4{fill:#fd0;}.cls-5{fill:#c92445;}.cls-6{fill:#121b21;}.cls-7{fill:#43b649;}.cls-8{fill:#636466;}</style></defs><g id="EVENT_PICTO"><g><rect class="cls-8" width="3740.79" height="300.47"></rect><rect class="cls-3" x="8.5" y="8.5" width="623.62" height="283.46"></rect><path class="cls-6" d="M484.11,183.14c-14.56,11.4-32.08,17.7-49.63,17.7-36.03,0-59.01-19.83-59.01-49.9,0-35.2,27.95-50.88,56.47-50.88,18.36,0,35.29,6.32,49.49,16.2l22.5-36.08c-15.77-12.39-43.69-20.84-75.51-20.84-60.49,0-105.05,35.87-105.05,91.6s43.3,90.2,105.05,90.2c34.9,0,58.09-8.47,77.59-21.44l-21.9-36.56Z"></path><rect class="cls-2" x="8.5" y="61.99" width="80.89" height="35.3"></rect><rect class="cls-5" x="8.5" y="97.29" width="80.89" height="35.3"></rect><path class="cls-6" d="M89.4,157.09v-24.5H8.5v35.3H89.73c-.22-3.52-.34-7.12-.34-10.8Z"></path><path class="cls-4" d="M89.73,167.89H8.5v35.3H96.52c-3.72-10.62-5.99-22.41-6.79-35.3Z"></path><path class="cls-7" d="M116.02,236.22c-8.55-9.3-15.05-20.34-19.49-33.03H8.5v35.3H118.18c-.73-.74-1.46-1.5-2.17-2.27Z"></path><path class="cls-6" d="M118.22,61.99h53.78v104.55c0,20.5,13.94,35.44,37.21,35.44s37.21-14.94,37.21-35.44V61.99h53.76v95.1c0,46.95-20.38,84.05-90.97,84.05s-90.99-37.1-90.99-84.05V61.99Z"></path><rect class="cls-6" x="526.9" y="61.99" width="53.48" height="176.5"></rect><rect class="cls-6" x="632.13" y="8.5" width="1888.1" height="283.46"></rect><path class="cls-3" d="M713.73,94.62c2.32-3.33,4.44-7.16,4.44-10.8s-2.22-5.95-6.05-5.95c-4.44,0-6.56,3.43-6.56,9.08l-16.04-2.42c.91-12.21,10.9-19.98,22.81-19.98s22.2,6.56,22.2,18.97c0,6.86-2.83,13.12-6.86,18.77-4.44,6.16-10.09,11.91-14.73,17.15h24.32v13.32h-45.91v-11.4c7.77-7.97,16.55-18.47,22.4-26.74Z"></path><path class="cls-3" d="M741.74,99.26c0-21.59,9.18-34.71,25.53-34.71s25.53,13.12,25.53,34.71-9.18,34.71-25.53,34.71-25.53-13.12-25.53-34.71Zm34.71,0c0-14.23-3.33-21.19-9.18-21.19s-9.18,6.96-9.18,21.19,3.33,21.19,9.18,21.19,9.18-6.96,9.18-21.19Z"></path><path class="cls-3" d="M821.12,94.62c2.32-3.33,4.44-7.16,4.44-10.8s-2.22-5.95-6.05-5.95c-4.44,0-6.56,3.43-6.56,9.08l-16.04-2.42c.91-12.21,10.9-19.98,22.81-19.98s22.2,6.56,22.2,18.97c0,6.86-2.83,13.12-6.86,18.77-4.44,6.16-10.09,11.91-14.73,17.15h24.32v13.32h-45.91v-11.4c7.77-7.97,16.55-18.47,22.4-26.74Z"></path><path class="cls-3" d="M847.36,116.52v-12.81c8.48-11,18.87-25.53,27.65-37.94h15.94v37.64h9.18v13.12h-9.18v16.25h-15.94v-16.25h-27.65Zm27.65-30.27c-3.03,4.74-8.07,13.93-10.59,17.15h10.59v-17.15Z"></path><path class="cls-3" d="M954.72,62.13c11.6,0,26.44,5.95,26.44,21.49,0,10.6-6.96,16.65-14.63,19.68,6.26,8.68,16.55,23.01,21.29,29.46h-20.38l-18.67-27.55h-.71v27.55h-16.35V62.13h23.01Zm9.08,21.8c0-4.94-3.83-8.27-9.49-8.27h-6.26v16.04h4.34c6.56,0,11.4-2.32,11.4-7.77Z"></path><path class="cls-3" d="M988.64,97.45c0-20.18,16.14-36.53,37.23-36.53s37.23,16.35,37.23,36.53-16.15,36.53-37.23,36.53-37.23-16.35-37.23-36.53Zm57.11,0c0-12.51-8.38-22.4-19.88-22.4s-19.88,9.89-19.88,22.4,8.37,22.4,19.88,22.4,19.88-9.89,19.88-22.4Z"></path><path class="cls-3" d="M1104.36,62.13l26.34,70.63h-18.77l-4.14-12.41h-23.31l-4.44,12.41h-18.06l29.36-70.63h13.02Zm-7.77,24.82h-.1l-7.27,20.38h14.13l-6.76-20.38Z"></path><path class="cls-3" d="M1157.49,62.13c18.37,0,39.05,9.48,39.05,35.01s-20.38,35.62-39.96,35.62h-20.28V62.13h21.19Zm21.7,35.92c0-14.63-8.58-22.4-23.31-22.4h-3.23v43.59h.91c15.14,0,25.63-5.75,25.63-21.19Z"></path><path class="cls-3" d="M1267.39,62.13l26.34,70.63h-18.77l-4.14-12.41h-23.31l-4.44,12.41h-18.06l29.36-70.63h13.02Zm-7.77,24.82h-.1l-7.27,20.38h14.13l-6.76-20.38Z"></path><path class="cls-3" d="M1313.76,62.13l30.17,41.17V62.13h16.35v70.63h-14.73l-29.87-40.97v40.97h-16.35V62.13h14.43Z"></path><path class="cls-3" d="M1394.47,62.13c18.37,0,39.05,9.48,39.05,35.01s-20.38,35.62-39.96,35.62h-20.28V62.13h21.19Zm21.7,35.92c0-14.63-8.58-22.4-23.31-22.4h-3.23v43.59h.91c15.14,0,25.63-5.75,25.63-21.19Z"></path><path class="cls-3" d="M1491.14,62.13c12.21,0,27.04,5.95,27.04,22.2s-14.73,22.4-27.04,22.4h-6.76v26.03h-16.35V62.13h23.11Zm9.69,22.5c0-5.55-4.04-8.98-10.09-8.98h-6.36v17.56h4.44c6.96,0,12.01-2.22,12.01-8.58Z"></path><path class="cls-3" d="M1554.78,62.13l26.34,70.63h-18.77l-4.14-12.41h-23.31l-4.44,12.41h-18.06l29.36-70.63h13.02Zm-7.77,24.82h-.1l-7.27,20.38h14.13l-6.76-20.38Z"></path><path class="cls-3" d="M1609.72,62.13c11.6,0,26.44,5.95,26.44,21.49,0,10.6-6.96,16.65-14.63,19.68,6.26,8.68,16.55,23.01,21.29,29.46h-20.38l-18.67-27.55h-.71v27.55h-16.35V62.13h23.01Zm9.08,21.8c0-4.94-3.83-8.27-9.49-8.27h-6.26v16.04h4.34c6.56,0,11.4-2.32,11.4-7.77Z"></path><path class="cls-3" d="M1688.26,62.13l26.34,70.63h-18.77l-4.14-12.41h-23.31l-4.44,12.41h-18.06l29.36-70.63h13.02Zm-7.77,24.82h-.1l-7.27,20.38h14.13l-6.76-20.38Z"></path><path class="cls-3" d="M1746.85,90.89v13.32h-29.46v-13.32h29.46Z"></path><path class="cls-3" d="M1758.23,97.45c0-20.58,16.75-36.53,37.44-36.53,8.58,0,15.34,2.72,22.8,7.47l-7.87,12.61c-4.24-3.53-9.28-5.95-14.83-5.95-11.71,0-20.18,9.99-20.18,22.4,0,13.02,7.17,22.4,20.08,22.4,5.35,0,10.8-2.32,14.83-6.16l9.28,11.71c-7.27,5.65-15.74,8.58-24.82,8.58-21.29,0-36.73-15.24-36.73-36.53Z"></path><path class="cls-3" d="M1820.7,62.13h20.08l11,23.81h.2l12.31-23.81h18.97l-23.92,41.88v28.76h-16.35v-29.36l-22.3-41.27Z"></path><path class="cls-3" d="M1879.87,97.45c0-20.58,16.75-36.53,37.44-36.53,8.58,0,15.34,2.72,22.81,7.47l-7.87,12.61c-4.24-3.53-9.28-5.95-14.83-5.95-11.71,0-20.18,9.99-20.18,22.4,0,13.02,7.16,22.4,20.08,22.4,5.35,0,10.8-2.32,14.83-6.16l9.28,11.71c-7.27,5.65-15.74,8.58-24.82,8.58-21.29,0-36.73-15.24-36.73-36.53Z"></path><path class="cls-3" d="M1964.09,62.13v57.11h28.25v13.52h-44.6V62.13h16.35Z"></path><path class="cls-3" d="M2013.91,62.13v70.63h-16.35V62.13h16.35Z"></path><path class="cls-3" d="M2041.14,62.13l30.17,41.17V62.13h16.35v70.63h-14.73l-29.87-40.97v40.97h-16.35V62.13h14.43Z"></path><path class="cls-3" d="M2097.26,97.45c0-20.58,16.75-36.53,37.44-36.53,12.41,0,22.5,4.94,30.68,14.43l-11.3,9.89c-4.84-5.85-11.3-10.19-19.27-10.19-11.71,0-20.18,9.99-20.18,22.4,0,13.02,7.77,22.4,20.08,22.4,5.15,0,11-2.22,15.24-6.26v-8.68h-16.55v-13.52h32.9v27.85c-7.67,10.39-19.07,14.73-31.48,14.73-21.29,0-37.54-14.93-37.54-36.53Z"></path><path class="cls-3" d="M2225.31,62.13c11.6,0,26.44,5.95,26.44,21.49,0,10.6-6.96,16.65-14.63,19.68,6.26,8.68,16.55,23.01,21.29,29.46h-20.38l-18.67-27.55h-.71v27.55h-16.35V62.13h23.01Zm9.08,21.8c0-4.94-3.83-8.27-9.49-8.27h-6.26v16.04h4.34c6.56,0,11.4-2.32,11.4-7.77Z"></path><path class="cls-3" d="M2259.23,97.45c0-20.18,16.14-36.53,37.23-36.53s37.23,16.35,37.23,36.53-16.15,36.53-37.23,36.53-37.23-16.35-37.23-36.53Zm57.11,0c0-12.51-8.38-22.4-19.88-22.4s-19.88,9.89-19.88,22.4,8.38,22.4,19.88,22.4,19.88-9.89,19.88-22.4Z"></path><path class="cls-3" d="M2374.95,62.13l26.34,70.63h-18.77l-4.14-12.41h-23.31l-4.44,12.41h-18.06l29.36-70.63h13.02Zm-7.77,24.82h-.1l-7.27,20.38h14.13l-6.76-20.38Z"></path><path class="cls-3" d="M2428.09,62.13c18.37,0,39.05,9.48,39.05,35.01s-20.38,35.62-39.96,35.62h-20.28V62.13h21.19Zm21.7,35.92c0-14.63-8.58-22.4-23.31-22.4h-3.23v43.59h.91c15.14,0,25.63-5.75,25.63-21.19Z"></path><path class="cls-3" d="M704.55,168.12l10.6,42.18h.2l11.81-42.18h15.24l11.3,42.18h.2l10.9-42.18h18.26l-20.28,70.63h-16.15l-12.21-43.59h-.2l-12.51,43.59h-15.44l-19.88-70.63h18.16Z"></path><path class="cls-3" d="M783.49,203.44c0-20.18,16.14-36.53,37.23-36.53s37.23,16.35,37.23,36.53-16.15,36.53-37.23,36.53-37.23-16.35-37.23-36.53Zm57.11,0c0-12.51-8.38-22.4-19.88-22.4s-19.88,9.89-19.88,22.4,8.38,22.4,19.88,22.4,19.88-9.89,19.88-22.4Z"></path><path class="cls-3" d="M890.38,168.12c11.6,0,26.44,5.95,26.44,21.49,0,10.6-6.96,16.65-14.63,19.68,6.26,8.68,16.55,23.01,21.29,29.46h-20.38l-18.67-27.55h-.71v27.55h-16.35v-70.63h23.01Zm9.08,21.8c0-4.94-3.83-8.27-9.49-8.27h-6.26v16.04h4.34c6.56,0,11.4-2.32,11.4-7.77Z"></path><path class="cls-3" d="M945.61,168.12v57.11h28.25v13.52h-44.6v-70.63h16.35Z"></path><path class="cls-3" d="M1000.28,168.12c18.37,0,39.05,9.48,39.05,35.01s-20.38,35.62-39.96,35.62h-20.28v-70.63h21.19Zm21.7,35.92c0-14.63-8.58-22.4-23.31-22.4h-3.23v43.59h.91c15.14,0,25.63-5.75,25.63-21.19Z"></path><path class="cls-3" d="M1071.23,203.44c0-20.58,16.75-36.53,37.44-36.53,8.58,0,15.34,2.72,22.81,7.47l-7.87,12.61c-4.24-3.53-9.28-5.95-14.83-5.95-11.71,0-20.18,9.99-20.18,22.4,0,13.02,7.16,22.4,20.08,22.4,5.35,0,10.8-2.32,14.83-6.16l9.28,11.71c-7.27,5.65-15.74,8.58-24.82,8.58-21.29,0-36.73-15.24-36.73-36.53Z"></path><path class="cls-3" d="M1155.45,168.12v27.55h27.04v-27.55h16.35v70.63h-16.35v-29.57h-27.04v29.57h-16.35v-70.63h16.35Z"></path><path class="cls-3" d="M1246.82,168.12l26.34,70.63h-18.77l-4.14-12.41h-23.31l-4.44,12.41h-18.06l29.36-70.63h13.02Zm-7.77,24.82h-.1l-7.27,20.38h14.13l-6.76-20.38Z"></path><path class="cls-3" d="M1302.37,168.12l18.06,47.02,18.77-47.02h23.01v70.63h-16.35v-48.44l-19.78,48.44h-11.71l-19.27-48.84v48.84h-16.35v-70.63h23.61Z"></path><path class="cls-3" d="M1398.43,168.12c12.21,0,27.04,5.95,27.04,22.2s-14.73,22.4-27.04,22.4h-6.76v26.03h-16.35v-70.63h23.11Zm9.69,22.5c0-5.55-4.04-8.98-10.09-8.98h-6.36v17.56h4.44c6.96,0,12.01-2.22,12.01-8.58Z"></path><path class="cls-3" d="M1448.22,168.12v70.63h-16.35v-70.63h16.35Z"></path><path class="cls-3" d="M1457.6,203.44c0-20.18,16.14-36.53,37.23-36.53s37.23,16.35,37.23,36.53-16.15,36.53-37.23,36.53-37.23-16.35-37.23-36.53Zm57.11,0c0-12.51-8.38-22.4-19.88-22.4s-19.88,9.89-19.88,22.4,8.38,22.4,19.88,22.4,19.88-9.89,19.88-22.4Z"></path><path class="cls-3" d="M1555.91,168.12l30.17,41.17v-41.17h16.35v70.63h-14.73l-29.87-40.97v40.97h-16.35v-70.63h14.43Z"></path><path class="cls-3" d="M1609.03,227.65l10.6-10.39c5.45,5.05,9.59,8.98,17.15,8.98,4.95,0,9.89-2.32,9.89-7.77s-6.56-7.77-12.92-10.09c-9.38-3.53-19.17-7.97-19.17-21.59s12.01-19.78,23.81-19.78c9.28,0,16.55,3.03,24.02,8.68l-9.18,11.5c-4.14-3.43-9.18-6.56-14.63-6.56-3.73,0-7.67,2.02-7.67,6.05,0,5.15,6.36,6.36,10.9,7.97,9.99,3.43,22.2,8.07,22.2,23.51s-14.53,21.8-27.45,21.8c-11.1,0-19.78-4.44-27.55-12.31Z"></path><path class="cls-3" d="M1689.91,168.12v27.55h27.04v-27.55h16.35v70.63h-16.35v-29.57h-27.04v29.57h-16.35v-70.63h16.35Z"></path><path class="cls-3" d="M1762.6,168.12v70.63h-16.35v-70.63h16.35Z"></path><path class="cls-3" d="M1798.5,168.12c12.21,0,27.04,5.95,27.04,22.2s-14.73,22.4-27.04,22.4h-6.76v26.03h-16.35v-70.63h23.11Zm9.69,22.5c0-5.55-4.04-8.98-10.09-8.98h-6.36v17.56h4.44c6.96,0,12.01-2.22,12.01-8.58Z"></path><path class="cls-3" d="M1826.23,227.65l10.6-10.39c5.45,5.05,9.59,8.98,17.15,8.98,4.95,0,9.89-2.32,9.89-7.77s-6.56-7.77-12.92-10.09c-9.38-3.53-19.17-7.97-19.17-21.59s12.01-19.78,23.81-19.78c9.28,0,16.55,3.03,24.02,8.68l-9.18,11.5c-4.14-3.43-9.18-6.56-14.63-6.56-3.73,0-7.67,2.02-7.67,6.05,0,5.15,6.36,6.36,10.9,7.97,9.99,3.43,22.2,8.07,22.2,23.51s-14.53,21.8-27.45,21.8c-11.1,0-19.78-4.44-27.55-12.31Z"></path><rect class="cls-2" x="2520.23" y="8.5" width="28.35" height="56.69"></rect><rect class="cls-5" x="2520.23" y="65.2" width="28.35" height="56.69"></rect><rect class="cls-7" x="2520.23" y="235.28" width="28.35" height="56.69"></rect><rect class="cls-4" x="2520.23" y="178.58" width="28.35" height="56.69"></rect><rect class="cls-6" x="2520.23" y="121.89" width="28.35" height="56.69"></rect><rect class="cls-3" x="2548.57" y="8.5" width="1183.71" height="283.46"></rect><path class="cls-6" d="M2630.15,68.99h-34.31v-6.86h44.4v4.34l-34.91,59.43h37.74v6.86h-47.93v-4.04l35.01-59.74Z"></path><path class="cls-6" d="M2650.41,99.57V62.13h7.47v40.26c0,16.65,7.47,24.72,19.37,24.72s19.37-8.07,19.37-24.72V62.13h7.47v37.44c0,22.2-7.97,34.41-27.04,34.41s-26.64-12.21-26.64-34.41Z"></path><path class="cls-6" d="M2741.5,62.13c10.59,0,23.41,5.55,23.41,19.88,0,10.39-6.66,17.86-18.37,19.78,7.67,10.49,19.07,25.83,22.91,30.98h-9.28l-22.2-30.78h-9.28v30.78h-7.47V62.13h20.28Zm15.44,20.08c0-7.97-6.46-13.22-15.94-13.22h-12.31v26.13h10.29c11,0,17.96-3.73,17.96-12.92Z"></path><path class="cls-6" d="M2786.59,62.13v70.63h-7.47V62.13h7.47Z"></path><path class="cls-6" d="M2800.14,97.45c0-20.99,17.15-36.53,38.14-36.53,6.36,0,12.71,1.82,17.66,4.84l-3.43,5.75c-4.24-2.32-9.18-3.73-14.33-3.73-17.25,0-30.07,12.31-30.07,29.67s12.11,29.67,30.17,29.67c5.55,0,10.8-1.51,15.74-4.64l3.93,5.75c-5.55,3.53-12.21,5.75-19.78,5.75-21.7,0-38.04-14.73-38.04-36.53Z"></path><path class="cls-6" d="M2875.43,62.13v30.47h40.77v-30.47h7.47v70.63h-7.47v-33.3h-40.77v33.3h-7.47V62.13h7.47Z"></path><path class="cls-6" d="M2596.04,229.97l5.65-5.05c6.96,7.06,12.31,8.17,19.27,8.17,8.07,0,15.84-4.24,15.84-13.72,0-8.48-8.07-11.6-16.65-14.83-9.69-3.63-20.08-7.27-20.08-18.77,0-12.92,9.59-18.87,20.69-18.87,8.07,0,15.04,2.22,20.99,6.76l-4.94,5.45c-3.03-3.03-9.28-5.35-14.83-5.35-8.68,0-14.23,4.14-14.23,11,0,7.87,9.38,10.29,18.67,13.72,9.18,3.43,18.37,7.87,18.37,19.68,0,15.84-13.82,21.8-23.92,21.8s-17.56-2.83-24.82-9.99Z"></path><path class="cls-6" d="M2657.69,168.12l15.54,57.72h.2l16.04-57.72h7.06l15.14,57.72h.2l16.35-57.72h7.27l-20.28,70.63h-7.37l-14.93-58.12h-.2l-16.04,58.12h-7.37l-19.37-70.63h7.77Z"></path><path class="cls-6" d="M2751.66,168.12v70.63h-7.47v-70.63h7.47Z"></path><path class="cls-6" d="M2760.99,174.98v-6.86h44v6.86h-18.26v63.77h-7.47v-63.77h-18.26Z"></path><path class="cls-6" d="M2846.21,174.98h-34.31v-6.86h44.4v4.34l-34.91,59.43h37.74v6.86h-47.93v-4.04l35.01-59.74Z"></path><path class="cls-6" d="M2909.42,168.12v6.86h-33.6v23.81h33.6v6.86h-33.6v26.24h33.6v6.86h-41.07v-70.63h41.07Z"></path><path class="cls-6" d="M2943.65,168.12c10.59,0,23.41,5.55,23.41,19.88,0,10.39-6.66,17.86-18.37,19.78,7.67,10.49,19.07,25.83,22.91,30.98h-9.28l-22.2-30.78h-9.28v30.78h-7.47v-70.63h20.28Zm15.44,20.08c0-7.97-6.46-13.22-15.94-13.22h-12.31v26.13h10.29c11,0,17.96-3.73,17.96-12.92Z"></path><path class="cls-6" d="M2988.8,168.12v63.77h31.48v6.86h-38.95v-70.63h7.47Z"></path><path class="cls-6" d="M3058.83,168.12l24.62,70.63h-8.38l-5.35-16.04h-31.08l-6.05,16.04h-7.77l27.25-70.63h6.76Zm-3.63,10.49h-.1l-13.92,37.23h26.34l-12.31-37.23Z"></path><path class="cls-6" d="M3098.05,168.12l42.18,56.81v-56.81h7.06v70.63h-5.65l-42.08-56.71v56.71h-7.06v-70.63h5.55Z"></path><path class="cls-6" d="M3183.38,168.12c17.86,0,37.54,9.48,37.54,35.01s-19.58,35.62-38.55,35.62h-17.36v-70.63h18.37Zm29.57,35.92c0-19.07-11.6-29.06-31.48-29.06h-8.98v56.91h4.14c21.79,0,36.33-6.56,36.33-27.85Z"></path><path class="cls-4" d="M3667.7,36.55h-49.26c-5.86,0-10.87,4.56-11.06,10.42-.2,6.13,4.7,11.16,10.78,11.16h49.26c5.86,0,10.87-4.56,11.06-10.42,.2-6.13-4.7-11.16-10.78-11.16Z"></path><path class="cls-4" d="M3639.76,79.72h-49.3c-5.87,0-10.88,4.56-11.07,10.43-.2,6.13,4.71,11.17,10.79,11.17h49.3c5.87,0,10.88-4.56,11.07-10.43,.2-6.13-4.7-11.16-10.79-11.16Z"></path><path class="cls-2" d="M3507.28,101.37s15.07,0,18.9,0c1.79,0,4.12,2.44,2.43,5.05l-25.63,39.52c-8.3,12.03-13.74,26.63-13.74,42.36,0,41.9,34.53,75.74,76.68,74.62,40.19-1.07,72.07-33.41,72.6-73.61,.47-35.68-24.1-65.7-57.25-73.61-6.55-1.56-12.94,2.55-13.84,9.23-.76,5.64,2.84,10.98,8.34,12.26,24.24,5.61,42.05,28.02,40.5,54.3-1.58,26.78-23.43,48.18-50.23,49.25-29.96,1.2-54.62-22.74-54.62-52.43,0-20.63,14.61-38.02,25.37-54.67,12.25-18.94,46.9-72.53,52.07-80.4,4.45-6.76,.08-16.14-8.43-16.67-4-.25-7.63,1.71-9.6,4.75l-22.42,34.58c-1.53,2.39-3.79,3.88-6.63,3.88h-19.1c-2.31,0-4.11-2.69-2.68-4.9,0,0,9.82-15.24,14.12-21.87,4.38-6.76-.54-16.45-9.06-16.45-4.5,0-7.44,2.3-9.13,4.76l-27.07,41.75c-2.58,3.98-2.13,9.26,.51,13.1,2.12,3.09,5.99,5.21,9.8,5.21h8.1Z"></path><path class="cls-2" d="M3466.72,117.06l-15.53,23.95c-1.45,2.24-3.94,3.6-6.62,3.6h-19.22c-2.07,0-3.91-2.73-2.41-4.98l48.46-74.56c4.89-7.52,4.09-16.31-1.64-22.63-3.55-3.91-8.93-5.88-12.85-5.88h-73.31c-5.46,0-11.43,3.36-14.27,7.74l-19.13,29.43c-4.89,7.55-3.21,18.05,4.65,24.12,2.96,2.28,7.09,3.5,10.82,3.5h24.73c5.62,0,11.22-5.16,10.45-11.7-.96-8.11-7.46-9.87-10.99-9.87h-11.92c-2.6,0-3.98-2.92-2.7-4.9l8.64-13.32c1.36-2.1,3.7-3.37,6.2-3.37h54.37c2.14,0,4.15,2.55,2.57,4.98l-49.08,75.51c-2.74,4.22-3.43,10.5-1.36,15.91,2.47,6.46,8.99,11.64,16.7,11.64h37.72c7.14,0,12.69-4.68,14.69-7.76l19.18-29.66c4.64-7.16-.49-16.63-9.03-16.64h-.07c-3.66,0-7.08,1.84-9.07,4.92Z"></path><path class="cls-7" d="M3390.2,126.85c1.04-6.88-4.48-12.97-11.44-12.66-4.19,.19-8.43,.75-12.66,1.71-40.87,9.31-66.2,50.52-55.7,91.39,9.78,38.09,48.48,62.35,87.03,54.56,35.48-7.17,59.73-38.21,59.91-72.71,.04-6.74-5.91-11.95-12.59-11.03h0c-5.49,.75-9.54,5.45-9.58,10.99-.17,24.68-17.86,46.82-43.55,51.29-26.37,4.6-51.73-11.16-59.26-36.84-8.6-29.3,9.34-59.35,38.67-66.03,2.98-.68,5.96-1.09,8.91-1.25,5.21-.28,9.48-4.26,10.26-9.42h0Z"></path><circle class="cls-1" cx="3382.68" cy="188.83" r="18.94"></circle><path class="cls-5" d="M3566.18,151.53c-22.36-1.41-40.79,17.02-39.38,39.38,1.18,18.61,15.95,33.39,34.56,34.56,22.36,1.41,40.79-17.02,39.37-39.37-1.18-18.61-15.95-33.39-34.56-34.56Zm-.35,52.69c-10.37,1.31-19.09-7.41-17.79-17.79,.9-7.14,6.53-12.77,13.67-13.66,10.37-1.31,19.09,7.41,17.78,17.79-.9,7.14-6.53,12.77-13.66,13.67Z"></path></g></g></svg>